<?xml version="1.0" encoding="UTF-8" standalone="no"?>
<!-- Created with Inkscape (http://www.inkscape.org/) -->

<svg viewBox="0 0 94 107" version="1.1" xml:space="preserve"
  xmlns="http://www.w3.org/2000/svg"
  xmlns:svg="http://www.w3.org/2000/svg">

  <path fill="#DFA400" d="m 41.322542,20.066475 c -1.808953,0.02164 -3.621647,0.162004 -5.43481,0.42168 -0.734189,0.105143 -1.360436,0.175353 -1.391646,0.156063 -0.105087,-0.06495 -0.137344,0.170133 -0.229444,1.674316 -0.133977,2.188131 -0.06785,4.134433 0.172083,5.060157 0.1217,0.46955 0.20343,0.672492 0.22996,0.571024 0.03563,-0.136236 0.174368,-0.180405 1.033012,-0.326595 1.442225,-0.245534 2.554061,-0.37917 3.666959,-0.4408 0.930103,-0.05151 0.981404,-0.04634 0.986504,0.09198 0.003,0.08027 0.06864,-0.153378 0.145727,-0.518831 0.07709,-0.365464 0.235707,-0.877313 0.352433,-1.137398 0.215308,-0.479767 0.631211,-0.930693 0.858346,-0.930693 0.06858,0 0.255033,0.137315 0.414445,0.304891 0.309719,0.325583 0.358043,0.481324 0.562756,1.811776 0.05862,0.380992 0.110439,0.617265 0.115239,0.524515 0.0048,-0.0927 0.03491,-0.183321 0.06666,-0.201021 0.09357,-0.05219 2.133259,0.08618 3.175,0.215491 4.018108,0.498787 7.714726,1.608742 11.264429,3.381706 l 1.082104,0.540535 c 0.07713,-0.0066 0.154398,-0.0084 0.232028,-0.0047 0.0488,0.0023 0.09748,0.0091 0.146244,0.0155 l -0.0016,-0.623218 -0.202572,-0.989087 c -0.593336,-2.899303 -0.604236,-5.10088 -0.04186,-6.080249 -0.01883,-0.01403 -0.03807,-0.02753 -0.05633,-0.04237 -0.06917,-0.05625 -0.122092,-0.106586 -0.167432,-0.153996 -0.153181,-0.03647 -0.393606,-0.127888 -0.877982,-0.317293 -5.278725,-2.064125 -10.673386,-3.068355 -16.10031,-3.003435 z m 18.647441,4.101559 0.04858,0.54622 c 0.04602,0.514633 1.146313,4.766711 1.495516,5.778975 0.160117,0.464179 0.343523,0.736734 0.495577,0.736906 0.04635,5.2e-5 0.395704,-0.320624 0.776696,-0.712618 0.79175,-0.814583 1.289295,-1.51258 1.918746,-2.693376 0.331385,-0.621596 0.410604,-0.827339 0.318844,-0.827339 -0.06718,0 -0.412392,-0.187309 -0.766878,-0.415996 -0.876472,-0.565399 -2.119308,-1.28104 -3.302641,-1.901175 l -0.96945,-0.50798 c -0.0039,-8e-4 -0.01099,-0.0028 -0.01499,-0.0036 z m -45.056165,5.669938 c -0.171829,0.266115 -0.420097,0.482525 -0.729154,0.630969 -1.520962,1.286716 -3.857569,3.747375 -5.317505,5.609994 C 4.2462082,41.974476 1.2544446,49.032387 0.28577067,56.322144 -0.0498982,58.848071 -0.16816969,62.715087 0.01860352,65.05236 0.52934045,71.443783 2.3143284,77.303259 5.3903687,82.683842 11.262679,92.955463 21.13325,100.27365 32.575789,102.83972 c 3.789569,0.84986 7.430023,1.15787 11.438579,0.96738 7.18276,-0.34131 14.497392,-2.71048 20.542415,-6.652823 0.592658,-0.386519 1.354137,-0.901586 1.691886,-1.144633 0.373044,-0.268456 0.667423,-0.427737 0.749825,-0.406177 0.09019,0.02357 0.01732,-0.11511 -0.217041,-0.413412 -0.688827,-0.876779 -0.841372,-0.89854 -0.890384,-0.128674 -0.02516,0.394986 -0.076,0.554358 -0.24598,0.777214 -0.42776,0.560819 -2.292428,2.04742 -2.568319,2.04742 -0.203634,0 -0.08153,-0.457616 0.410311,-1.539441 0.778005,-1.711246 1.185403,-2.891705 1.065568,-3.0856 -0.02498,-0.04043 -0.345745,0.198424 -0.713135,0.530717 -0.869341,0.7864 -1.619247,1.399915 -1.711007,1.399915 -0.04114,0 -0.07338,-0.336914 -0.07338,-0.772563 0,-0.606597 -0.03127,-0.83418 -0.145728,-1.058333 -0.179242,-0.351057 -1.278049,-1.594218 -1.409216,-1.594218 -0.05296,0 -0.121179,0.154148 -0.153479,0.346749 -0.08038,0.479374 -0.594778,1.486573 -1.03973,2.036568 -0.440108,0.544012 -1.334369,1.314534 -1.604553,1.382344 -0.189424,0.04754 -0.448916,-0.05844 -2.644283,-1.082104 -0.398193,-0.185613 -0.738276,-0.322641 -0.756026,-0.304891 -0.0177,0.01775 0.03978,0.0548 0.127641,0.08268 0.194864,0.06193 0.204845,0.165193 0.0248,0.259933 -0.07408,0.03899 -0.615316,0.236889 -1.203027,0.439766 -1.026403,0.354338 -1.073026,0.363001 -1.174089,0.224793 -0.0041,-0.0057 -0.0044,-0.0045 -0.0083,-0.0098 -0.01897,0.0028 -0.03792,0.0057 -0.05684,0.0088 0.04387,0.119758 0.147369,0.35528 0.340031,0.777214 0.209127,0.457853 0.363208,0.860339 0.342098,0.894519 -0.146785,0.237445 -1.210495,-0.353435 -1.813843,-1.007691 -0.171571,-0.186087 -0.191712,-0.186386 -0.242362,-0.224276 -0.02324,0.0058 -0.04657,0.01097 -0.07028,0.01447 0.0094,0.04736 0.0052,0.08688 -0.0217,0.110587 -0.09284,0.08192 -1.621009,0.422997 -2.807064,0.626319 -4.446537,0.762222 -9.3862,0.624647 -13.788306,-0.383439 -1.050419,-0.240543 -2.081766,-0.533369 -2.5585,-0.714685 C 31.051126,95.228598 30.877454,95.13665 30.650326,94.991618 30.018947,94.868547 27.790499,93.955302 26.128638,93.122481 19.373945,89.73723 13.835737,84.147243 10.525972,77.373572 9.7126422,75.709054 9.3012789,74.725901 8.8175496,73.293717 7.5238243,69.463257 6.947406,65.977022 6.946346,61.979163 c -0.00106,-4.471434 0.7633564,-8.583211 2.3610962,-12.7 0.6800267,-1.752181 2.1384508,-4.643202 2.9403888,-5.832719 0.02728,-0.08593 0.05393,-0.154911 0.0925,-0.24753 0.04546,-0.09676 0.09318,-0.192367 0.152446,-0.281637 0.07773,-0.1179 0.08507,-0.11707 0.115238,-0.15968 0.01126,-0.01926 0.01363,-0.02262 0.06408,-0.09663 0.0048,-0.0064 0.126116,-0.164331 0.08837,-0.110071 0.06156,-0.07934 0.03705,-0.04917 0.112138,-0.133325 0.0163,-0.01693 0.03229,-0.03421 0.04858,-0.05116 0.0018,-0.0019 0.0045,-0.0075 0.0057,-0.0052 1.62e-4,3.12e-4 7e-6,7.35e-4 0,0.001 0.04336,-0.04888 0.08827,-0.09634 0.135392,-0.141593 0.06183,-0.0959 0.127965,-0.188914 0.192236,-0.283187 0.03173,-0.0425 0.06369,-0.08494 0.09663,-0.126607 0.373384,-0.526006 0.824012,-1.136259 1.179773,-1.58595 1.131379,-1.430115 2.852362,-3.22563 4.350639,-4.538741 1.014391,-0.889116 2.310759,-1.892478 2.488737,-1.926498 0.09183,-0.01757 -0.06777,-0.110868 -0.42323,-0.24753 -1.255736,-0.482772 -2.260003,-1.042263 -3.418913,-1.904276 -1.49326,-1.11071 -2.346257,-1.684308 -2.614311,-1.769918 z m -2.315104,12.935645 c -0.0023,0.0037 -0.0047,0.0067 -0.0072,0.01085 -0.0014,0.0023 -0.005,0.0095 -0.0036,0.0072 0.008,-0.0134 0.0065,-0.0106 0.01085,-0.01809 z m 68.822673,5.08186 c -0.01406,0 -0.212263,0.03545 -0.440283,0.07906 -0.228023,0.04362 -0.944128,0.113539 -1.591118,0.155029 -1.118566,0.07173 -1.211142,0.0903 -1.888773,0.379822 -0.391956,0.167466 -0.947708,0.359174 -1.235067,0.425814 -0.535808,0.12426 -1.74994,0.165823 -2.002979,0.06873 -0.12725,-0.04883 -0.131924,-0.036 -0.04599,0.124541 0.186012,0.347559 0.770175,2.015148 1.071253,3.058728 0.722465,2.504085 1.122621,4.747116 1.321883,7.407816 0.112224,1.498417 0.04837,4.823095 -0.119889,6.234245 -0.0062,0.05184 -0.01673,0.120351 -0.02377,0.1757 2.02e-4,0.06854 4.8e-4,0.137144 5.17e-4,0.205672 3.2e-5,0.07318 -7e-6,0.146445 0,0.219625 4e-6,0.05634 -10e-7,0.112642 0,0.168982 0.0068,0.173982 -0.02485,0.350994 -0.05219,0.517281 -0.02822,0.145853 -0.05632,0.323195 -0.077,0.484725 -0.01883,0.206187 -0.05432,0.409947 -0.08888,0.613916 -0.01609,0.130969 -0.03922,0.259668 -0.06201,0.390157 -0.03443,0.160819 -0.09063,0.312243 -0.154513,0.46147 -0.01199,0.05479 -0.02205,0.105836 -0.03824,0.167432 -0.01099,0.04297 -0.02399,0.0853 -0.03721,0.127641 0.151291,0.256633 0.35213,0.711178 0.454236,1.031978 0.166535,0.523261 0.191202,0.741866 0.191202,1.699121 0,0.981683 0.0211,1.159545 0.198438,1.670183 0.120095,0.345821 0.215842,0.825401 0.242362,1.214913 0.04373,0.642181 0.04501,0.645382 0.509013,1.270206 0.755558,1.017447 1.498395,2.190696 1.893941,2.992066 0.218118,0.441831 0.370671,0.678788 0.372071,0.577225 0.0013,-0.09475 0.130447,-0.449406 0.286804,-0.788065 0.644926,-1.396833 1.564128,-3.929595 2.027266,-5.586739 1.079001,-3.860786 1.55452,-7.374864 1.553911,-11.476302 -6.88e-4,-4.613735 -0.653795,-8.753335 -2.053622,-13.015227 -0.149937,-0.456509 -0.252746,-0.881042 -0.228926,-0.943094 0.02377,-0.06206 0.03163,-0.112655 0.01757,-0.112655 z m -7.583517,1.009757 c -0.0268,0.0012 -0.04974,0.0084 -0.06253,0.02119 -0.02558,0.0256 0.02016,0.04361 0.101286,0.04031 0.08967,-0.0037 0.107896,-0.02196 0.04651,-0.04651 -0.02778,-0.01121 -0.05846,-0.01615 -0.08527,-0.01499 z m 2.093413,20.387386 c -0.0017,0.0039 -0.0039,0.0075 -0.0057,0.01137 0.0015,0.0026 0.0021,0.0036 0.0036,0.0062 0.0014,-0.0068 7.18e-4,-0.0109 0.0021,-0.01757 z M 51.22323,92.09412 c 0.012,0.04837 0.02425,0.05287 0.03772,0.02377 -0.01256,-0.0079 -0.02515,-0.01587 -0.03772,-0.02377 z" />
  <path fill="#00000" d="m 17.11009,-2.5827378 c 0.26878,0.02328 0.41008,0.131633 0.41008,0.324151 0,0.118327 -0.38679,0.599038 -1.19202,1.48198307 -0.65552,0.718753 -1.24215,1.412239 -1.30356,1.541014 -0.257,0.53891293 -0.42502,3.27863693 -0.4266,6.95372093 l -10e-4,2.4067988 0.30368,0.701637 c 0.34182,0.790141 1.08367,2.063427 1.65374,2.838137 0.48477,0.658803 2.96632,3.137228 3.79914,3.794539 0.88504,0.698526 0.99193,0.736821 1.40944,0.498655 1.44682,-0.825333 2.08283,-0.85603 2.30552,-0.110812 0.0717,0.240224 0.0724,0.422257 0.003,0.799505 -0.11899,0.64743 -0.1131,0.904529 0.0248,1.101907 0.17159,0.245605 1.23211,0.666104 1.53599,0.608949 0.13477,-0.02535 0.64084,-0.27551 1.12435,-0.555614 1.65323,-0.957735 1.81541,-1.035735 2.3143,-1.115371 0.26837,-0.04284 0.54587,-0.137105 0.61666,-0.209197 0.0708,-0.07209 0.27048,-0.492823 0.44416,-0.935171 0.35941,-0.915328 0.47868,-1.127405 1.08304,-1.933517 1.16783,-1.557686 1.57228,-2.259368 2.64691,-4.588866 0.15646,-0.339171 0.3425,-0.682335 0.41369,-0.762739 0.19991,-0.225796 0.70992,-0.4294568 1.07994,-0.4313388 0.27713,-0.0014 0.37821,0.04211 0.58826,0.2526928 0.28309,0.283832 0.42194,0.68602 0.42247,1.222558 0.001,0.792804 -0.58994,3.586913 -1.1884,5.618798 -0.39879,1.353935 -0.65134,2.403609 -0.7716,3.20682 -0.17406,1.162511 -0.29097,3.506881 -0.25152,5.0492 0.0326,1.274101 0.061,1.515751 0.27166,2.309969 0.27553,1.038899 0.72943,2.19959 1.1006,2.815354 0.32187,0.533996 0.86821,1.102831 1.1197,1.166114 0.27998,0.07045 0.68482,-0.242125 1.95742,-1.512014 1.32499,-1.322181 1.5086,-1.631199 1.79576,-3.024553 0.2199,-1.066943 0.50718,-1.7532 0.86612,-2.069182 0.3169,-0.27896 0.40917,-0.283786 0.70137,-0.03728 0.32825,0.276929 0.44685,0.586991 0.59032,1.543084 0.25463,1.696906 0.98267,5.217555 1.51481,7.327064 0.63586,2.520741 0.82221,3.10987 1.10317,3.479192 0.45755,0.60144 1.4266,1.110194 2.11443,1.110194 0.40667,0 0.61786,-0.0855 2.71869,-1.097248 1.51872,-0.731409 1.9155,-0.819264 2.23735,-0.496584 0.61145,0.613045 -0.33563,2.038398 -1.99409,3.001249 -0.25385,0.14738 -0.95931,0.433443 -1.56748,0.635357 -0.60817,0.201919 -1.17262,0.434155 -1.25451,0.51626 -0.14724,0.147622 -0.14644,0.153371 0.0599,0.511082 0.6535,1.132856 1.74556,2.432341 2.59888,3.092384 0.74875,0.57916 1.91983,0.79025 2.77189,0.499174 l 0.36721,-0.12531 1.08871,0.547328 c 1.31571,0.66166 2.55267,1.091552 3.14169,1.091552 0.33219,0 0.49208,-0.04755 0.78297,-0.2325 0.63266,-0.402262 0.59581,0.182388 0.51905,-8.190259 l -0.0681,-7.427007 -0.19884,-0.990576 c -0.62065,-3.087407 -0.60739,-5.227775 0.0393,-6.238103 0.25418,-0.397094 0.49463,-0.513962 0.8186,-0.398197 0.36874,0.131765 0.47023,0.384415 0.58413,1.457126 0.0834,0.785614 0.23369,1.470194 0.69465,3.16229 0.91891,3.37322 1.05452,3.710376 1.41202,3.518545 0.25549,-0.137086 1.3462,-1.342115 1.75806,-1.942319 0.79733,-1.161942 1.72369,-3.083074 2.65724,-5.510059 0.99424,-2.58478 1.62688,-3.663531 2.14799,-3.663531 0.32707,0 0.59235,0.202392 0.6931,0.528688 0.0576,0.186642 0.10356,1.79971 0.13738,4.793402 l 0.0511,4.511712 0.25152,0.612055 c 0.58771,1.429557 1.61362,2.410333 2.77964,2.658457 0.64569,0.137398 2.93006,0.194696 3.82497,0.0958 1.46073,-0.161431 4.91085,-1.16119 5.65173,-1.637845 0.53833,-0.346348 1.03928,-0.935027 1.5742,-1.850149 0.25833,-0.44196 0.79266,-1.358892 1.18736,-2.037596 1.09121,-1.876423 1.87821,-3.007374 2.61282,-3.753633 1.12805,-1.145954 1.69195,-1.057404 1.69195,0.265639 0,0.579858 -0.13274,1.108344 -0.80673,3.217695 -0.27785,0.86959 -0.66378,2.222037 -0.85785,3.005392 -0.51636,2.084197 -0.90635,3.191441 -2.66395,7.561114 -1.29288,3.214275 -1.51442,4.011287 -1.11402,4.009432 0.23969,-0.0011 0.52583,-0.242906 2.77602,-2.34932 1.95091,-1.826265 2.49315,-2.277345 2.73935,-2.277345 0.37752,0 0.40428,0.458261 0.0764,1.310584 -0.315,0.818944 -0.82884,1.584886 -1.65735,2.468938 -1.31324,1.401308 -1.38144,1.511808 -0.88626,1.445218 0.80823,-0.108691 2.62885,-1.109176 4.57282,-2.512949 1.74672,-1.261343 2.1386,-1.429602 2.36078,-1.013362 0.18332,0.343434 -0.4369,1.379601 -1.3955,2.33068 -1.20261,1.19317 -2.3759,1.99675 -5.28245,3.617963 -0.91796,0.512022 -2.24246,1.256109 -2.94335,1.653381 -1.93192,1.095026 -2.57116,1.290368 -4.65959,1.423469 -1.13173,0.07213 -1.22062,0.08976 -1.89958,0.380593 -1.77492,0.760311 -3.21823,0.733872 -4.99167,-0.09165 -0.61091,-0.284363 -0.70674,-0.307377 -1.07684,-0.258905 -0.22347,0.02926 -1.72193,0.07996 -3.32968,0.112882 l -2.92321,0.05955 -0.49581,0.212823 c -1.4208,0.608164 -2.33958,1.169324 -2.96298,1.810795 -0.36292,0.373441 -0.40163,0.39302 -0.784,0.39302 -0.22122,0 -0.42328,0.0344 -0.44933,0.07664 -0.0579,0.09389 0.16938,0.312296 1.11092,1.067731 0.88509,0.71015 1.27289,1.103604 1.49156,1.513052 0.14981,0.280506 0.16402,0.404389 0.13842,1.237575 -0.0157,0.509032 -0.0332,1.17125 -0.0387,1.471629 l -0.01,0.545774 0.43228,0.572183 c 1.13088,1.497242 2.22959,2.556504 4.82072,4.646863 2.02044,1.629948 4.91713,4.278917 6.12223,5.598597 0.88386,0.96791 1.6171,2.14956 1.8877,3.04164 0.13031,0.4296 0.16062,0.73433 0.16062,1.62542 0,0.97923 0.0212,1.1581 0.19832,1.66943 0.12003,0.34653 0.21573,0.82708 0.24222,1.21738 0.0437,0.64349 0.0445,0.64669 0.50821,1.27278 1.70237,2.29836 2.61817,4.19956 2.94336,6.11228 0.17754,1.04429 0.11262,3.98443 -0.11052,5.00415 -0.52773,2.41161 -1.7643,4.43944 -4.07495,6.68394 -1.20872,1.17413 -2.62986,2.17442 -2.62986,1.85067 0,-0.0358 0.4824,-0.72145 1.07219,-1.52341 1.58386,-2.15364 2.15171,-3.1162 1.83812,-3.1162 -0.0493,0 -0.34836,0.2781 -0.6647,0.61775 -0.91687,0.98443 -4.13105,3.77849 -4.34661,3.77849 -0.0798,0 -0.0789,-0.007 0.24739,-1.2614 0.39936,-1.53555 0.29718,-1.66085 -0.44829,-0.54785 -0.52603,0.78539 -0.87924,1.14671 -1.28653,1.31732 -0.49082,0.20561 -0.62221,0.1534 -1.31338,-0.52299 -0.78188,-0.76517 -0.8538,-0.74703 -0.70188,0.17865 0.0581,0.3538 0.0939,0.7201 0.08,0.814 -0.031,0.20995 -0.41905,0.6395 -0.57793,0.6395 -0.064,0 -0.21751,-0.16529 -0.34138,-0.36713 -0.3762,-0.613 -1.01894,-1.34118 -1.15999,-1.31421 -0.0987,0.0189 -0.13849,0.1426 -0.1725,0.53853 -0.0342,0.39849 -0.0914,0.57652 -0.25513,0.79173 -0.26506,0.34841 -1.45032,1.37555 -2.02921,1.7585 -0.24047,0.15907 -0.48127,0.28946 -0.53506,0.28946 -0.20352,0 -0.082,-0.45853 0.40956,-1.54257 0.77756,-1.71478 1.18524,-2.89758 1.06547,-3.09187 -0.025,-0.0405 -0.34607,0.19878 -0.71324,0.5318 -0.86885,0.788 -1.61832,1.40327 -1.71003,1.40327 -0.0411,0 -0.0728,-0.33811 -0.0728,-0.77465 0,-0.60783 -0.0312,-0.83586 -0.14565,-1.06048 -0.17914,-0.35177 -1.27783,-1.59694 -1.40893,-1.59694 -0.0524,0 -0.1211,0.15209 -0.15287,0.33865 -0.0772,0.45367 -0.44873,1.23347 -0.86922,1.82426 -0.3896,0.5474 -1.25379,1.36154 -1.64082,1.54568 -0.29529,0.14048 -0.16742,0.18213 -1.97498,-0.64261 -2.20104,-1.00428 -2.64373,-1.27896 -3.76403,-2.33638 -0.51365,-0.48483 -0.77531,-0.6829 -0.82945,-0.62862 -0.0541,0.0543 -0.0284,0.33047 0.0811,0.87614 0.2442,1.21652 0.51895,2.09416 0.97251,3.10791 0.22712,0.50766 0.39594,0.95014 0.37547,0.98334 -0.0672,0.10901 -0.2563,0.0635 -0.7246,-0.17347 -0.61655,-0.31205 -0.96807,-0.64364 -1.75238,-1.65493 -0.36217,-0.467 -0.88917,-1.14421 -1.17084,-1.50477 -0.65955,-0.84429 -0.92195,-1.30653 -2.26678,-3.99028 -0.61136,-1.22003 -1.15564,-2.21831 -1.20906,-2.21831 -0.14996,0 -0.16,0.7133 -0.0217,1.52341 0.1454,0.85184 0.41076,1.75364 0.81757,2.77755 0.48576,1.22257 0.38215,1.36057 -0.40439,0.53853 -0.67107,-0.70134 -0.86602,-1.00508 -1.60106,-2.48913 -0.34616,-0.69893 -0.66036,-1.30212 -0.69775,-1.34062 -0.10522,-0.10837 -0.25313,0.0541 -0.80104,0.87925 -0.68086,1.02538 -1.6484,1.85505 -2.83852,2.43424 -0.56697,0.27592 -0.76929,0.31214 -2.35819,0.41942 -0.95197,0.0643 -1.10475,0.0964 -1.83296,0.38733 -0.43692,0.17455 -1.06001,0.37016 -1.38465,0.43496 -1.77404,0.35417 -1.70605,0.3325 -2.06794,0.66695 -0.18867,0.17436 -0.56839,0.5875 -0.8434,0.91808 -0.36198,0.43512 -0.54918,0.60118 -0.67916,0.60118 -0.42468,0 -2.89511,-1.00647 -4.71226,-1.91953 C 19.32581,89.81387 13.79101,84.2128 10.48307,77.42518 9.4177192,75.23917 8.7946792,73.61217 8.1790992,71.40922 6.1455192,64.131819 6.5271292,56.346344 9.2647092,49.274238 9.9503895,47.502905 11.43044,44.565136 12.22718,43.393429 l 0.2226,-0.328295 0.66986,5.29e-4 0.66935,5.29e-4 2.15368,0.874588 2.15419,0.874588 3.46137,2.043293 c 4.12788,2.436278 5.44941,3.198833 6.1088,3.525276 0.27114,0.134221 0.99906,0.60501 1.6181,1.046501 1.80878,1.29 2.44892,1.594419 3.88901,1.850668 0.97064,0.172712 3.15106,0.242263 3.94532,0.125828 0.56288,-0.08252 2.82722,-0.72834 3.68294,-1.050644 0.52325,-0.197083 0.50922,-0.424403 -0.0558,-0.909281 -0.20628,-0.177025 -0.47785,-0.311613 -0.78968,-0.391988 -0.4785,-0.123312 -2.42778,-0.354182 -2.98985,-0.354182 -0.1664,0 -0.4648,-0.04968 -0.66314,-0.110294 -0.19834,-0.06062 -0.45918,-0.131792 -0.58,-0.157932 -0.12995,-0.02813 -0.2365,-0.110197 -0.2603,-0.201433 C 35.44153,50.14635 35.2982,50.012409 35.14497,49.933958 34.71948,49.7161 33.92127,49.107505 33.37761,48.586086 32.26235,47.516489 31.8155,46.745374 31.33962,45.070652 30.8063,43.19375 30.7275,42.777135 30.71986,41.79289 c -0.008,-1.090128 0.0912,-1.379463 0.56812,-1.648203 1.10765,-0.624163 4.39516,-0.08501 6.97027,1.143333 1.94967,0.93001 2.68445,1.596877 4.28566,3.888782 0.91004,1.302592 1.3467,1.807578 1.73844,2.01067 0.26244,0.136064 0.392,0.105846 0.392,-0.09165 0,-0.196297 -1.0651,-2.313107 -1.46626,-2.914258 -0.56433,-0.845656 -2.16311,-2.819138 -2.62057,-3.234266 -0.92477,-0.83919 -2.54591,-1.751979 -4.25932,-2.397996 -2.58598,-0.974987 -2.21687,-0.881417 -3.9577,-0.998863 -1.72024,-0.116049 -1.95122,-0.166772 -3.21554,-0.704223 -0.45491,-0.193384 -1.79641,-0.743741 -2.98106,-1.223078 -7.18033,-2.905319 -7.09419,-2.86529 -8.69269,-4.058624 -0.63464,-0.473774 -1.8043,-1.292199 -2.59939,-1.819079 -4.39067,-2.909639 -6.9113008,-5.623232 -8.7856808,-9.458931 -0.68604,-1.403916 -1.29317,-2.937301 -1.54062,-3.889817 -0.18445,-0.709989 -0.15828,-3.939976 0.0403,-4.968423 0.30696,-1.5898308 0.97331,-3.5501388 1.71212,-5.0362538 1.85841,-3.738154 6.3459708,-7.834685 9.6264908,-8.787815 0.51044,-0.148304 0.9067,-0.210212 1.17548,-0.186931 z"/>
</svg>
